<svg width="20" height="20" fill="none" xmlns="http://www.w3.org/2000/svg"><path d="M20 6.39a.586.586 0 00-.173-.418L14.816 1a.586.586 0 00-.827.002l-1.456 1.456A6.508 6.508 0 0010 2.719a6.5 6.5 0 00-2.533-.261L6.011 1.002A.586.586 0 005.184 1L.174 5.972a.586.586 0 00.002.835l1.49 1.456a6.506 6.506 0 00.285 2.6c.17.527.404 1.021.697 1.48l-.26.26a1.76 1.76 0 00.546 2.856 1.757 1.757 0 002.398 2.4 1.76 1.76 0 002.857.545l.154-.155.358.358c.02.02.04.037.062.053.331.33.77.51 1.237.51a1.75 1.75 0 001.24-.511c.327-.318.211-.204.417-.41.204.203.613.669 1.398.669a1.757 1.757 0 001.614-1.06 1.76 1.76 0 002.115-.283 1.76 1.76 0 00.282-2.116 1.757 1.757 0 00.546-2.856l-.261-.262a6.498 6.498 0 00.983-4.078l1.49-1.456A.586.586 0 0020 6.39zM3.217 14.26a.587.587 0 010-.829l.157-.157c.05.053.1.106.151.157l.675.675-.155.154a.587.587 0 01-.828 0zm1.657 2.486a.586.586 0 11-.829-.829l.983-.983.829.829-.983.983zm2.486.829a.587.587 0 01-.829-.83l.154-.154.83.83-.155.154zm9.423-3.315a.587.587 0 01-.828 0l-4.143-4.143a.586.586 0 10-.829.828l4.972 4.972a.587.587 0 01-.829.829l-4.972-4.972a.586.586 0 10-.828.829l4.143 4.143a.586.586 0 11-.829.829L8.497 13.43a.586.586 0 00-.829.829l3.16 3.16c-.19.19-.104.106-.407.4l-.007.006a.582.582 0 01-.828 0l-.007-.006c-.348-.338-4.851-4.844-5.225-5.217a5.234 5.234 0 01-1.492-4.476.586.586 0 00-.17-.501l-1.27-1.241 4.173-4.142L6.84 3.487c.13.13.314.192.496.166.288-.04.579-.057.87-.05-.3.211-.582.449-.846.713L4.045 7.631a1.757 1.757 0 102.486 2.486l2.35-2.35a4.105 4.105 0 002.355.117l5.547 5.547c.23.23.23.6 0 .829zm.526-6.634a.586.586 0 00-.171.501 5.317 5.317 0 01-.64 3.36l-4.092-4.09a4.07 4.07 0 00.754-.595.586.586 0 00-.828-.828 2.935 2.935 0 01-3.335.572.586.586 0 00-.667.115L5.702 9.288a.587.587 0 01-.828-.828l3.314-3.315a5.236 5.236 0 014.476-1.492.586.586 0 00.497-.166l1.244-1.244 4.174 4.142-1.27 1.24z" fill="#000"/></svg>