<svg class='likebtn' width="19" height="17" fill="none" xmlns="http://www.w3.org/2000/svg"><path d="M9.75 16l-.354.354a.5.5 0 00.708 0L9.75 16zM2.294 8.544l-.353.354.353-.354zm6.25-6.25l-.353.354.353-.354zM9.75 3.5l-.354.354a.5.5 0 00.708 0L9.75 3.5zm1.206-1.206l-.354-.353.354.353zm-.852 13.352L2.648 8.191l-.707.707 7.455 7.456.708-.708zm6.748-7.455l-7.456 7.455.708.708 7.455-7.456-.707-.707zM8.191 2.648l1.205 1.206.708-.708-1.206-1.205-.707.707zm1.913 1.206l1.205-1.206-.707-.707-1.206 1.205.708.708zM14.08.5a4.92 4.92 0 00-3.479 1.44l.707.708A3.92 3.92 0 0114.081 1.5v-1zM18 5.42a3.92 3.92 0 01-1.148 2.77l.707.708A4.92 4.92 0 0019 5.419h-1zm1 0A4.92 4.92 0 0014.08.5v1A3.92 3.92 0 0118 5.42h1zM5.42 1.5a3.92 3.92 0 012.77 1.148l.708-.707A4.92 4.92 0 005.419.5v1zM1.5 5.42A3.92 3.92 0 015.42 1.5v-1A4.92 4.92 0 00.5 5.42h1zm1.148 2.77A3.92 3.92 0 011.5 5.42h-1a4.92 4.92 0 001.44 3.478l.708-.707z" fill="#000"/></svg>
