<svg width="22" height="23" viewBox="0 0 22 23" fill="none" xmlns="http://www.w3.org/2000/svg">
<path fill-rule="evenodd" clip-rule="evenodd" d="M20.6253 10.0076L20.6407 10.0193C21.2007 10.4432 21.8359 10.9265 21.8359 11.6207C21.8359 12.3149 21.2012 12.7971 20.6421 13.2219L20.6418 13.2221C20.3183 13.4651 19.9145 13.7722 19.8615 13.9757C19.8798 14.3667 19.9861 14.7479 20.1721 15.0891L20.1804 15.1089C20.462 15.7781 20.7509 16.4645 20.4243 17.0438C20.0945 17.6287 19.3535 17.7145 18.6372 17.7974C18.2669 17.7997 17.902 17.889 17.5701 18.0583C17.4055 18.4007 17.3187 18.7773 17.3161 19.1595C17.2356 19.898 17.1424 20.6676 16.5797 21.002C16.0169 21.3364 15.339 21.035 14.6848 20.7411C14.356 20.5498 13.989 20.439 13.6122 20.417C13.4212 20.4678 13.1318 20.8723 12.8949 21.2033L12.8812 21.2224L12.8805 21.2235C12.4686 21.7997 12.0019 22.4526 11.328 22.4526C10.6541 22.4526 10.1873 21.7995 9.77542 21.2233L9.77481 21.2224C9.53815 20.8889 9.24122 20.4726 9.04388 20.4179C8.66503 20.4391 8.29582 20.5486 7.96395 20.7382L7.94773 20.7455C7.29776 21.0371 6.63081 21.3364 6.06812 20.9982C5.50075 20.6572 5.41758 19.8942 5.33719 19.1566C5.33556 18.7731 5.24867 18.3951 5.08318 18.0516C4.75123 17.8813 4.38591 17.7914 4.01512 17.7888C3.29973 17.7106 2.556 17.6165 2.22893 17.0352C1.90185 16.454 2.19603 15.7551 2.48109 15.0806C2.66709 14.7422 2.77467 14.3641 2.7954 13.9757C2.74684 13.7782 2.35132 13.4776 2.03049 13.2337L2.03048 13.2337L2.01513 13.2221C1.45504 12.7982 0.820984 12.3159 0.820984 11.6207C0.820984 10.9255 1.45504 10.4432 2.01419 10.0193C2.33762 9.77628 2.74148 9.46918 2.79446 9.26571C2.77433 8.87604 2.66675 8.49652 2.48015 8.15701C2.19145 7.48161 1.90177 6.78259 2.23158 6.19762C2.56139 5.61265 3.30239 5.5269 4.01867 5.44402C4.38784 5.44208 4.75174 5.35386 5.08305 5.18593C5.2476 4.84347 5.33445 4.46691 5.33706 4.08474C5.41749 3.34249 5.51158 2.57384 6.07347 2.23848C6.63537 1.90312 7.31328 2.20077 7.9711 2.49939C8.3004 2.6893 8.66708 2.80004 9.04371 2.82345C9.23463 2.77263 9.52407 2.36819 9.76098 2.03714L9.77464 2.01805L9.77542 2.01696C10.1873 1.44073 10.654 0.787842 11.3278 0.787842C11.9987 0.787842 12.4643 1.43497 12.8775 2.00931L12.8838 2.01805C13.1205 2.35151 13.4174 2.7679 13.6147 2.82252C13.9917 2.80102 14.3588 2.69014 14.6873 2.49846C15.3415 2.20081 16.0203 1.90219 16.5877 2.2432C17.1551 2.58421 17.2382 3.34722 17.3186 4.08479C17.3203 4.46828 17.4072 4.84629 17.5726 5.18973C17.9046 5.36008 18.2699 5.44998 18.6407 5.45254C19.3561 5.53074 20.0998 5.62493 20.4269 6.20614C20.754 6.78736 20.4598 7.48629 20.1747 8.16077C19.9887 8.49917 19.8812 8.87732 19.8604 9.26571C19.909 9.46319 20.3045 9.7638 20.6253 10.0076ZM8.2215 13.7873C8.30776 13.9059 8.44318 13.9757 8.58695 13.9757C8.63607 13.9757 8.68481 13.9674 8.73132 13.9512C8.91779 13.8871 9.04366 13.7073 9.04379 13.5047V9.73675C9.04379 9.47663 8.83924 9.26575 8.58695 9.26575C8.33465 9.26575 8.13011 9.47663 8.13011 9.73675V12.0917L6.21146 9.45416C6.1252 9.33556 5.98978 9.26575 5.84601 9.26575C5.59372 9.26575 5.38918 9.47663 5.38918 9.73675V13.5047C5.38918 13.7648 5.59372 13.9757 5.84601 13.9757C6.09831 13.9757 6.30285 13.7648 6.30285 13.5047V11.1497L8.2215 13.7873ZM12.2416 13.9757H10.4143C10.162 13.9757 9.95743 13.7648 9.95743 13.5047V11.6207V9.73675C9.95743 9.47663 10.162 9.26575 10.4143 9.26575H12.2416C12.4939 9.26575 12.6984 9.47663 12.6984 9.73675C12.6984 9.99687 12.4939 10.2078 12.2416 10.2078H10.8711V11.1497H12.2416C12.4939 11.1497 12.6984 11.3606 12.6984 11.6207C12.6984 11.8808 12.4939 12.0917 12.2416 12.0917H10.8711V13.0337H12.2416C12.4939 13.0337 12.6984 13.2446 12.6984 13.5047C12.6984 13.7648 12.4939 13.9757 12.2416 13.9757ZM16.3758 13.6536C16.4379 13.8462 16.6129 13.976 16.8097 13.9757L16.8281 13.9748C17.0309 13.9668 17.2044 13.8218 17.2538 13.6187L18.1674 9.85081C18.2285 9.5982 18.0794 9.34245 17.8344 9.27949C17.5894 9.21652 17.3413 9.37027 17.2803 9.62284L16.7476 11.8214L16.3301 10.53C16.2824 10.4216 16.1982 10.3348 16.0931 10.2857C15.8537 10.1737 15.5716 10.2831 15.463 10.53L15.0455 11.8214L14.5129 9.62284C14.4518 9.37027 14.2037 9.21652 13.9587 9.27949C13.7138 9.34245 13.5646 9.59824 13.6257 9.85081L14.5393 13.6187C14.5887 13.8218 14.7622 13.9668 14.9651 13.9748C15.1701 13.9906 15.3581 13.8568 15.4164 13.6536L15.8961 12.168L16.3758 13.6536Z" fill="#414141"/>
</svg>
