<svg width="19" height="18" viewBox="0 0 19 18" fill="none" xmlns="http://www.w3.org/2000/svg">
<path d="M6.50319 6.72187H7.6631M11.1428 11.5054H12.3028M12.3028 6.12393L6.50319 12.1034M8.59272 1.08846L7.28315 2.43864C7.06826 2.6602 6.7768 2.78467 6.4729 2.78467H4.41024C3.7774 2.78467 3.26437 3.3136 3.26437 3.96608V6.0927C3.26437 6.40603 3.14365 6.70652 2.92876 6.92808L1.61919 8.27826C1.1717 8.73963 1.1717 9.48766 1.61919 9.94903L2.92875 11.2992C3.14365 11.5208 3.26437 11.8213 3.26437 12.1346V14.2612C3.26437 14.9137 3.7774 15.4426 4.41025 15.4426H6.4729C6.7768 15.4426 7.06826 15.5671 7.28315 15.7886L8.59272 17.1388C9.04021 17.6002 9.76574 17.6002 10.2132 17.1388L11.5228 15.7886C11.7377 15.5671 12.0291 15.4426 12.333 15.4426H14.3957C15.0285 15.4426 15.5416 14.9137 15.5416 14.2612V12.1346C15.5416 11.8213 15.6623 11.5208 15.8772 11.2992L17.1868 9.94903C17.6342 9.48766 17.6342 8.73963 17.1868 8.27826L15.8772 6.92808C15.6623 6.70652 15.5416 6.40603 15.5416 6.0927V3.96608C15.5416 3.3136 15.0285 2.78467 14.3957 2.78467H12.333C12.0291 2.78467 11.7377 2.6602 11.5228 2.43864L10.2132 1.08846C9.76574 0.62709 9.04021 0.627089 8.59272 1.08846Z" stroke="#414141"/>
</svg>
